<svg xmlns="http://www.w3.org/2000/svg" viewBox="0 0 16 16"><path d="M3 1L3 2L2.5 2C1.675781 2 1 2.675781 1 3.5L1 12.5C1 13.324219 1.675781 14 2.5 14L12.5 14C13.324219 14 14 13.324219 14 12.5L14 3.5C14 2.675781 13.324219 2 12.5 2L12 2L12 1L11 1L11 2L4 2L4 1 Z M 2.5 3L3 3L3 4L4 4L4 3L11 3L11 4L12 4L12 3L12.5 3C12.78125 3 13 3.21875 13 3.5L13 5L2 5L2 3.5C2 3.21875 2.21875 3 2.5 3 Z M 2 6L13 6L13 12.5C13 12.78125 12.78125 13 12.5 13L2.5 13C2.21875 13 2 12.78125 2 12.5 Z M 5 7L5 8L6 8L6 7 Z M 7 7L7 8L8 8L8 7 Z M 9 7L9 8L10 8L10 7 Z M 11 7L11 8L12 8L12 7 Z M 3 9L3 10L4 10L4 9 Z M 5 9L5 10L6 10L6 9 Z M 7 9L7 10L8 10L8 9 Z M 9 9L9 10L10 10L10 9 Z M 11 9L11 10L12 10L12 9 Z M 3 11L3 12L4 12L4 11 Z M 5 11L5 12L6 12L6 11 Z M 7 11L7 12L8 12L8 11Z"/></svg>