<svg xmlns="http://www.w3.org/2000/svg" viewBox="0 0 16 16"><path d="M10.5 1C9.851563 1 9.300781 1.421875 9.09375 2L2 2L2 3L9.09375 3C9.300781 3.578125 9.851563 4 10.5 4C11.148438 4 11.699219 3.578125 11.90625 3L14 3L14 2L11.90625 2C11.699219 1.421875 11.148438 1 10.5 1 Z M 10.5 2C10.78125 2 11 2.21875 11 2.5C11 2.78125 10.78125 3 10.5 3C10.21875 3 10 2.78125 10 2.5C10 2.21875 10.21875 2 10.5 2 Z M 5.5 6C4.851563 6 4.300781 6.421875 4.09375 7L2 7L2 8L4.09375 8C4.300781 8.578125 4.851563 9 5.5 9C6.148438 9 6.699219 8.578125 6.90625 8L14 8L14 7L6.90625 7C6.699219 6.421875 6.148438 6 5.5 6 Z M 5.5 7C5.78125 7 6 7.21875 6 7.5C6 7.78125 5.78125 8 5.5 8C5.21875 8 5 7.78125 5 7.5C5 7.21875 5.21875 7 5.5 7 Z M 10.5 11C9.851563 11 9.300781 11.421875 9.09375 12L2 12L2 13L9.09375 13C9.300781 13.578125 9.851563 14 10.5 14C11.148438 14 11.699219 13.578125 11.90625 13L14 13L14 12L11.90625 12C11.699219 11.421875 11.148438 11 10.5 11 Z M 10.5 12C10.78125 12 11 12.21875 11 12.5C11 12.78125 10.78125 13 10.5 13C10.21875 13 10 12.78125 10 12.5C10 12.21875 10.21875 12 10.5 12Z"/></svg>