<svg xmlns="http://www.w3.org/2000/svg" viewBox="0 0 16 16"><path d="M7.5 1C3.917969 1 1 3.917969 1 7.5C1 11.082031 3.917969 14 7.5 14C11.082031 14 14 11.082031 14 7.5C14 3.917969 11.082031 1 7.5 1 Z M 7 2.140625L7 4L5.609375 4C5.679688 3.824219 5.746094 3.636719 5.828125 3.480469C6.179688 2.777344 6.589844 2.339844 7 2.140625 Z M 8 2.140625C8.410156 2.339844 8.820313 2.777344 9.171875 3.480469C9.253906 3.636719 9.320313 3.824219 9.390625 4L8 4 Z M 5.273438 2.472656C5.152344 2.652344 5.03125 2.832031 4.929688 3.03125C4.78125 3.332031 4.648438 3.65625 4.53125 4L3.269531 4C3.808594 3.351563 4.488281 2.820313 5.273438 2.472656 Z M 9.726563 2.472656C10.511719 2.820313 11.191406 3.351563 11.730469 4L10.46875 4C10.351563 3.65625 10.21875 3.332031 10.066406 3.03125C9.96875 2.832031 9.847656 2.652344 9.726563 2.472656 Z M 2.609375 5L4.261719 5C4.125 5.621094 4.054688 6.296875 4.023438 7L2.039063 7C2.101563 6.285156 2.296875 5.609375 2.609375 5 Z M 5.296875 5L7 5L7 7L5.023438 7C5.058594 6.285156 5.148438 5.609375 5.296875 5 Z M 8 5L9.703125 5C9.851563 5.609375 9.941406 6.285156 9.976563 7L8 7 Z M 10.738281 5L12.390625 5C12.703125 5.609375 12.898438 6.285156 12.964844 7L10.972656 7C10.945313 6.296875 10.875 5.621094 10.738281 5 Z M 2.039063 8L4.023438 8C4.054688 8.703125 4.125 9.378906 4.261719 10L2.609375 10C2.296875 9.390625 2.101563 8.714844 2.039063 8 Z M 5.023438 8L7 8L7 10L5.296875 10C5.148438 9.390625 5.058594 8.714844 5.023438 8 Z M 8 8L9.976563 8C9.941406 8.714844 9.851563 9.390625 9.703125 10L8 10 Z M 10.972656 8L12.964844 8C12.898438 8.714844 12.703125 9.390625 12.390625 10L10.738281 10C10.875 9.378906 10.945313 8.703125 10.972656 8 Z M 3.269531 11L4.53125 11C4.648438 11.34375 4.78125 11.667969 4.929688 11.96875C5.03125 12.167969 5.152344 12.347656 5.273438 12.527344C4.488281 12.179688 3.808594 11.648438 3.269531 11 Z M 5.609375 11L7 11L7 12.859375C6.589844 12.660156 6.179688 12.222656 5.828125 11.519531C5.746094 11.363281 5.679688 11.175781 5.609375 11 Z M 8 11L9.390625 11C9.320313 11.175781 9.253906 11.363281 9.171875 11.519531C8.820313 12.222656 8.410156 12.660156 8 12.859375 Z M 10.46875 11L11.730469 11C11.191406 11.648438 10.511719 12.179688 9.726563 12.527344C9.847656 12.347656 9.96875 12.167969 10.066406 11.96875C10.21875 11.667969 10.351563 11.34375 10.46875 11Z"/></svg>