<svg xmlns="http://www.w3.org/2000/svg" viewBox="0 0 16 16"><path d="M7.5 1C3.914063 1 1 3.914063 1 7.5C1 11.085938 3.914063 14 7.5 14C8.71875 14 9.863281 13.664063 10.839844 13.078125L10.324219 12.21875C9.5 12.714844 8.535156 13 7.5 13C4.457031 13 2 10.542969 2 7.5C2 4.457031 4.457031 2 7.5 2C10.542969 2 13 4.457031 13 7.5L13 8.601563C13 9.375 12.375 10 11.605469 10L11.398438 10C10.628906 10 10 9.375 10 8.601563L10 6.398438C10 5.082031 8.917969 4 7.601563 4L7.398438 4C6.082031 4 5 5.082031 5 6.398438L5 8.601563C5 9.917969 6.082031 11 7.398438 11L7.601563 11C8.375 11 9.0625 10.621094 9.5 10.046875C9.941406 10.621094 10.625 11 11.398438 11L11.605469 11C12.917969 11 14 9.921875 14 8.601563L14 7.5C14 3.914063 11.085938 1 7.5 1 Z M 7.398438 5L7.601563 5C8.371094 5 9 5.625 9 6.398438L9 8.601563C9 9.375 8.371094 10 7.601563 10L7.398438 10C6.625 10 6 9.375 6 8.601563L6 6.398438C6 5.625 6.625 5 7.398438 5Z"/></svg>