<?xml version="1.0" encoding="UTF-8"?>
<svg xmlns="http://www.w3.org/2000/svg" xmlns:xlink="http://www.w3.org/1999/xlink" width="24pt" height="24pt" viewBox="0 0 24 24" version="1.1">
<g id="surface154">
<path style=" stroke:none;fill-rule:nonzero;fill:rgb(100%,100%,100%);fill-opacity:1;" d="M 6.390625 4.976562 L 21.710938 4.191406 L 18.328125 2.265625 C 17.496094 1.699219 16.484375 1.429688 15.484375 1.5 L 3.398438 1.984375 Z M 6.390625 4.976562 "/>
<path style=" stroke:none;fill-rule:nonzero;fill:rgb(100%,100%,100%);fill-opacity:1;" d="M 5 6.414062 L 2 3.414062 L 2 16.894531 C 2 17.488281 2.175781 18.066406 2.503906 18.558594 L 5 22.304688 Z M 5 6.414062 "/>
<path style=" stroke:none;fill-rule:nonzero;fill:rgb(100%,100%,100%);fill-opacity:1;" d="M 7 6.949219 L 7 22.9375 L 22.0625 21.996094 C 22.589844 21.964844 23 21.527344 23 21 L 23 6.128906 Z M 20.457031 9.839844 C 19.925781 9.949219 19.925781 9.949219 19.925781 10.484375 C 19.925781 13.359375 19.925781 16.234375 19.933594 19.105469 C 19.933594 19.308594 19.878906 19.429688 19.6875 19.488281 C 19.347656 19.597656 19.011719 19.738281 18.664062 19.808594 C 18.109375 19.925781 17.617188 19.773438 17.285156 19.296875 C 16.824219 18.636719 16.375 17.96875 15.9375 17.296875 C 14.917969 15.726562 13.910156 14.152344 12.898438 12.582031 C 12.875 12.550781 12.851562 12.519531 12.792969 12.441406 C 12.78125 12.546875 12.765625 12.613281 12.765625 12.675781 C 12.765625 14.632812 12.769531 16.589844 12.761719 18.546875 C 12.761719 18.71875 12.816406 18.789062 12.984375 18.820312 C 13.359375 18.890625 13.730469 18.980469 14.101562 19.0625 C 14.054688 19.46875 13.832031 19.722656 13.414062 19.789062 C 13.109375 19.839844 12.796875 19.847656 12.488281 19.867188 C 11.738281 19.910156 10.984375 19.945312 10.238281 19.996094 C 10.019531 20.015625 9.976562 19.921875 10.011719 19.746094 C 10.058594 19.523438 10.171875 19.363281 10.410156 19.304688 C 10.648438 19.246094 10.878906 19.171875 11.113281 19.105469 C 11.113281 16.292969 11.113281 13.492188 11.113281 10.675781 C 10.757812 10.644531 10.410156 10.613281 10.066406 10.582031 C 9.929688 10.097656 10.230469 9.652344 10.742188 9.609375 C 11.660156 9.535156 12.585938 9.507812 13.503906 9.40625 C 13.894531 9.363281 14.078125 9.507812 14.273438 9.808594 C 15.574219 11.792969 16.886719 13.769531 18.199219 15.75 C 18.246094 15.820312 18.300781 15.894531 18.394531 16.027344 C 18.394531 14.027344 18.394531 12.101562 18.394531 10.15625 C 18.074219 10.121094 17.765625 10.078125 17.460938 10.054688 C 17.289062 10.042969 17.25 9.964844 17.269531 9.816406 C 17.308594 9.5 17.558594 9.214844 17.894531 9.1875 C 18.910156 9.113281 19.929688 9.058594 20.941406 9 C 21.089844 9.5 20.945312 9.738281 20.457031 9.839844 Z M 20.457031 9.839844 "/>
</g>
</svg>
