<svg width="144" height="44" viewBox="0 0 144 44" fill="none" xmlns="http://www.w3.org/2000/svg">
<path d="M9.2 11.3333C8.91711 11.3334 8.64581 11.4457 8.44578 11.6458C8.24575 11.8458 8.13336 12.1171 8.13333 12.4V31.6C8.13336 31.8829 8.24575 32.1542 8.44578 32.3542C8.64581 32.5542 8.91711 32.6666 9.2 32.6667H12.4C12.5413 32.6687 12.6817 32.6426 12.8128 32.5898C12.944 32.5371 13.0634 32.4589 13.1641 32.3596C13.2647 32.2604 13.3446 32.1421 13.3992 32.0117C13.4538 31.8813 13.4819 31.7414 13.4819 31.6C13.4819 31.4586 13.4538 31.3187 13.3992 31.1883C13.3446 31.0579 13.2647 30.9396 13.1641 30.8404C13.0634 30.7411 12.944 30.6629 12.8128 30.6102C12.6817 30.5574 12.5413 30.5313 12.4 30.5333H10.2667V13.4667H12.4C12.5413 13.4687 12.6817 13.4426 12.8128 13.3898C12.944 13.3371 13.0634 13.2589 13.1641 13.1596C13.2647 13.0604 13.3446 12.9421 13.3992 12.8117C13.4538 12.6813 13.4819 12.5414 13.4819 12.4C13.4819 12.2586 13.4538 12.1187 13.3992 11.9883C13.3446 11.8579 13.2647 11.7396 13.1641 11.6404C13.0634 11.5411 12.944 11.4629 12.8128 11.4102C12.6817 11.3574 12.5413 11.3313 12.4 11.3333H9.2ZM31.6 11.3333C31.4587 11.3313 31.3183 11.3574 31.1872 11.4102C31.056 11.4629 30.9366 11.5411 30.8359 11.6404C30.7353 11.7396 30.6554 11.8579 30.6008 11.9883C30.5462 12.1187 30.5181 12.2586 30.5181 12.4C30.5181 12.5414 30.5462 12.6813 30.6008 12.8117C30.6554 12.9421 30.7353 13.0604 30.8359 13.1596C30.9366 13.2589 31.056 13.3371 31.1872 13.3898C31.3183 13.4426 31.4587 13.4687 31.6 13.4667H33.7333V30.5333H31.6C31.4587 30.5313 31.3183 30.5574 31.1872 30.6102C31.056 30.6629 30.9366 30.7411 30.8359 30.8404C30.7353 30.9396 30.6554 31.0579 30.6008 31.1883C30.5462 31.3187 30.5181 31.4586 30.5181 31.6C30.5181 31.7414 30.5462 31.8813 30.6008 32.0117C30.6554 32.1421 30.7353 32.2604 30.8359 32.3596C30.9366 32.4589 31.056 32.5371 31.1872 32.5898C31.3183 32.6426 31.4587 32.6687 31.6 32.6667H34.8C35.0829 32.6666 35.3542 32.5542 35.5542 32.3542C35.7542 32.1542 35.8666 31.8829 35.8667 31.6V12.4C35.8666 12.1171 35.7542 11.8458 35.5542 11.6458C35.3542 11.4457 35.0829 11.3334 34.8 11.3333H31.6ZM15.6 16.6667C15.4587 16.6647 15.3183 16.6908 15.1872 16.7435C15.056 16.7962 14.9366 16.8744 14.8359 16.9737C14.7353 17.0729 14.6554 17.1912 14.6008 17.3216C14.5462 17.452 14.5181 17.592 14.5181 17.7333C14.5181 17.8747 14.5462 18.0146 14.6008 18.1451C14.6554 18.2755 14.7353 18.3937 14.8359 18.493C14.9366 18.5922 15.056 18.6705 15.1872 18.7232C15.3183 18.7759 15.4587 18.802 15.6 18.8H28.4C28.5413 18.802 28.6817 18.7759 28.8128 18.7232C28.944 18.6705 29.0634 18.5922 29.1641 18.493C29.2647 18.3937 29.3446 18.2755 29.3992 18.1451C29.4538 18.0146 29.4819 17.8747 29.4819 17.7333C29.4819 17.592 29.4538 17.452 29.3992 17.3216C29.3446 17.1912 29.2647 17.0729 29.1641 16.9737C29.0634 16.8744 28.944 16.7962 28.8128 16.7435C28.6817 16.6908 28.5413 16.6647 28.4 16.6667H15.6ZM15.6 20.9333C15.4587 20.9313 15.3183 20.9574 15.1872 21.0102C15.056 21.0629 14.9366 21.1411 14.8359 21.2404C14.7353 21.3396 14.6554 21.4579 14.6008 21.5883C14.5462 21.7187 14.5181 21.8586 14.5181 22C14.5181 22.1414 14.5462 22.2813 14.6008 22.4117C14.6554 22.5421 14.7353 22.6604 14.8359 22.7596C14.9366 22.8589 15.056 22.9371 15.1872 22.9898C15.3183 23.0426 15.4587 23.0687 15.6 23.0667H25.2C25.3413 23.0687 25.4817 23.0426 25.6128 22.9898C25.744 22.9371 25.8634 22.8589 25.9641 22.7596C26.0647 22.6604 26.1446 22.5421 26.1992 22.4117C26.2538 22.2813 26.2819 22.1414 26.2819 22C26.2819 21.8586 26.2538 21.7187 26.1992 21.5883C26.1446 21.4579 26.0647 21.3396 25.9641 21.2404C25.8634 21.1411 25.744 21.0629 25.6128 21.0102C25.4817 20.9574 25.3413 20.9313 25.2 20.9333H15.6ZM15.6 25.2C15.4587 25.198 15.3183 25.2241 15.1872 25.2768C15.056 25.3295 14.9366 25.4078 14.8359 25.507C14.7353 25.6063 14.6554 25.7245 14.6008 25.8549C14.5462 25.9854 14.5181 26.1253 14.5181 26.2667C14.5181 26.408 14.5462 26.548 14.6008 26.6784C14.6554 26.8088 14.7353 26.9271 14.8359 27.0263C14.9366 27.1256 15.056 27.2038 15.1872 27.2565C15.3183 27.3092 15.4587 27.3353 15.6 27.3333H28.4C28.5413 27.3353 28.6817 27.3092 28.8128 27.2565C28.944 27.2038 29.0634 27.1256 29.1641 27.0263C29.2647 26.9271 29.3446 26.8088 29.3992 26.6784C29.4538 26.548 29.4819 26.408 29.4819 26.2667C29.4819 26.1253 29.4538 25.9854 29.3992 25.8549C29.3446 25.7245 29.2647 25.6063 29.1641 25.507C29.0634 25.4078 28.944 25.3295 28.8128 25.2768C28.6817 25.2241 28.5413 25.198 28.4 25.2H15.6Z" fill="#1890FF"/>
<path d="M50.354 28.716C49.526 28.716 48.776 28.584 48.104 28.32C47.444 28.044 46.874 27.636 46.394 27.096C45.926 26.556 45.566 25.89 45.314 25.098C45.062 24.294 44.936 23.364 44.936 22.308C44.936 21.252 45.062 20.316 45.314 19.5C45.566 18.672 45.926 17.982 46.394 17.43C46.874 16.866 47.444 16.44 48.104 16.152C48.776 15.864 49.526 15.72 50.354 15.72C51.482 15.72 52.418 15.96 53.162 16.44C53.906 16.92 54.5 17.646 54.944 18.618L52.91 19.698C52.73 19.134 52.436 18.684 52.028 18.348C51.62 18 51.062 17.826 50.354 17.826C49.466 17.826 48.758 18.126 48.23 18.726C47.714 19.326 47.456 20.166 47.456 21.246V23.226C47.456 24.318 47.714 25.158 48.23 25.746C48.758 26.322 49.466 26.61 50.354 26.61C51.062 26.61 51.638 26.418 52.082 26.034C52.538 25.65 52.868 25.176 53.072 24.612L54.998 25.746C54.542 26.682 53.936 27.414 53.18 27.942C52.424 28.458 51.482 28.716 50.354 28.716ZM67.2154 28.5L66.2074 25.296H61.7434L60.7534 28.5H58.3414L62.5534 15.936H65.5054L69.6814 28.5H67.2154ZM64.0114 18.096H63.9214L62.3194 23.262H65.6314L64.0114 18.096ZM74.0531 28.5V15.936H79.7051C80.2811 15.936 80.7971 16.032 81.2531 16.224C81.7211 16.404 82.1171 16.668 82.4411 17.016C82.7651 17.352 83.0111 17.76 83.1791 18.24C83.3471 18.72 83.4311 19.248 83.4311 19.824C83.4311 20.412 83.3471 20.946 83.1791 21.426C83.0111 21.894 82.7651 22.302 82.4411 22.65C82.1171 22.986 81.7211 23.25 81.2531 23.442C80.7971 23.622 80.2811 23.712 79.7051 23.712H76.4291V28.5H74.0531ZM76.4291 21.66H79.4891C79.9451 21.66 80.3051 21.54 80.5691 21.3C80.8331 21.048 80.9651 20.694 80.9651 20.238V19.41C80.9651 18.954 80.8331 18.606 80.5691 18.366C80.3051 18.126 79.9451 18.006 79.4891 18.006H76.4291V21.66ZM93.0364 18.042V28.5H90.6604V18.042H87.0964V15.936H96.6004V18.042H93.0364ZM100.456 28.5V26.592H102.112V17.844H100.456V15.936H106.162V17.844H104.488V26.592H106.162V28.5H100.456ZM116.041 28.716C115.213 28.716 114.463 28.578 113.791 28.302C113.119 28.026 112.543 27.612 112.063 27.06C111.595 26.508 111.229 25.83 110.965 25.026C110.701 24.222 110.569 23.286 110.569 22.218C110.569 21.162 110.701 20.232 110.965 19.428C111.229 18.612 111.595 17.928 112.063 17.376C112.543 16.824 113.119 16.41 113.791 16.134C114.463 15.858 115.213 15.72 116.041 15.72C116.869 15.72 117.619 15.858 118.291 16.134C118.963 16.41 119.539 16.824 120.019 17.376C120.499 17.928 120.865 18.612 121.117 19.428C121.381 20.232 121.513 21.162 121.513 22.218C121.513 23.286 121.381 24.222 121.117 25.026C120.865 25.83 120.499 26.508 120.019 27.06C119.539 27.612 118.963 28.026 118.291 28.302C117.619 28.578 116.869 28.716 116.041 28.716ZM116.041 26.61C116.941 26.61 117.655 26.31 118.183 25.71C118.723 25.11 118.993 24.27 118.993 23.19V21.246C118.993 20.166 118.723 19.326 118.183 18.726C117.655 18.126 116.941 17.826 116.041 17.826C115.141 17.826 114.421 18.126 113.881 18.726C113.353 19.326 113.089 20.166 113.089 21.246V23.19C113.089 24.27 113.353 25.11 113.881 25.71C114.421 26.31 115.141 26.61 116.041 26.61ZM130.044 22.056L128.748 19.446H128.694V28.5H126.444V15.936H129.054L132.834 22.38L134.13 24.99H134.184V15.936H136.434V28.5H133.824L130.044 22.056Z" fill="#1890FF"/>
</svg>
